<?xml version="1.0" encoding="utf-8"?>
<!-- Generator: Adobe Illustrator 16.0.0, SVG Export Plug-In . SVG Version: 6.00 Build 0)  -->
<!DOCTYPE svg PUBLIC "-//W3C//DTD SVG 1.1//EN" "http://www.w3.org/Graphics/SVG/1.1/DTD/svg11.dtd">
<svg version="1.1" id="Layer_1" xmlns="http://www.w3.org/2000/svg" xmlns:xlink="http://www.w3.org/1999/xlink" x="0px" y="0px"
	 width="255.12px" height="56.69px" viewBox="0 0 255.12 56.69" enable-background="new 0 0 255.12 56.69" xml:space="preserve">
<g>
	<path fill="#212121" d="M3.014,55.616c-1.049,0-1.813-0.241-2.293-0.72C0.24,54.414,0,53.65,0,52.603V10.154
		c0-0.567,0.076-1.048,0.23-1.441C0.382,8.32,0.611,7.992,0.917,7.73l8.45-7.141c0.218-0.174,0.513-0.316,0.885-0.426
		C10.623,0.055,11.027,0,11.464,0h20.897c4.542,0,7.882,0.885,10.022,2.653s3.21,4.444,3.21,8.025v3.144
		c0,1.529-0.208,2.839-0.623,3.93c-0.415,1.092-1.038,1.966-1.867,2.621l-0.196,0.13c2.358,0.524,4.126,1.649,5.306,3.374
		c1.179,1.726,1.769,4.117,1.769,7.172v6.027c0,1.965-0.285,3.659-0.853,5.077c-0.568,1.42-1.419,2.609-2.554,3.571l-8.451,7.139
		c-1.092,0.919-2.468,1.606-4.128,2.063c-1.66,0.459-3.602,0.688-5.829,0.688H3.014z M36.619,47.82c4.323,0,7.522-0.874,9.597-2.619
		c2.074-1.747,3.111-4.456,3.111-8.124V31.05c0-3.186-0.677-5.61-2.03-7.27c-1.354-1.66-3.429-2.62-6.224-2.882
		c1.31-0.567,2.282-1.43,2.916-2.588c0.632-1.156,0.95-2.652,0.95-4.487v-3.144c0-3.407-1.027-5.929-3.079-7.566
		c-2.053-1.638-5.219-2.457-9.499-2.457H11.464c-0.83,0-1.431,0.187-1.801,0.557C9.291,1.583,9.106,2.185,9.106,3.014v42.448
		c0,0.83,0.185,1.432,0.557,1.801c0.37,0.373,0.971,0.558,1.801,0.558H36.619z M23.845,11.792h5.568
		c0.829,0,1.452,0.219,1.867,0.654c0.415,0.438,0.622,1.093,0.622,1.966v1.834c0,0.874-0.208,1.529-0.622,1.965
		c-0.415,0.437-1.038,0.655-1.867,0.655h-5.568V11.792z M23.845,28.955h8.516c0.829,0,1.451,0.207,1.867,0.621
		c0.415,0.415,0.623,1.061,0.623,1.934v2.554c0,0.875-0.208,1.529-0.623,1.965c-0.416,0.438-1.038,0.656-1.867,0.656h-8.516V28.955z
		"/>
	<path fill="#212121" d="M75.399,47.886l-8.516,7.075c-0.175,0.175-0.448,0.328-0.819,0.458c-0.372,0.132-0.775,0.197-1.212,0.197
		H54.764c-1.048,0-1.812-0.241-2.292-0.72c-0.48-0.482-0.721-1.246-0.721-2.294V10.154c0-0.567,0.076-1.048,0.23-1.441
		c0.152-0.393,0.381-0.721,0.688-0.982l8.45-7.141c0.218-0.174,0.513-0.316,0.884-0.426C62.374,0.055,62.778,0,63.214,0h21.814
		c5.197,0,8.756,1.082,10.678,3.243c1.92,2.162,2.882,4.946,2.882,8.353v3.013c0,1.616-0.196,3.024-0.59,4.225
		c-0.393,1.202-1.026,2.173-1.899,2.915h-0.066c2.053,0.568,3.701,1.704,4.946,3.407c1.244,1.703,1.867,3.844,1.867,6.419v13.888
		c0,0.569-0.077,1.048-0.229,1.442c-0.154,0.393-0.383,0.72-0.688,0.981l-8.517,7.075c-0.175,0.175-0.448,0.328-0.818,0.458
		c-0.373,0.132-0.776,0.197-1.212,0.197H81.23c-1.048,0-1.812-0.241-2.293-0.72c-0.481-0.482-0.721-1.246-0.721-2.294V42.58
		c0-0.698-0.131-1.233-0.393-1.604c-0.263-0.371-0.744-0.558-1.442-0.558h-0.065v5.044c0,0.569-0.077,1.048-0.229,1.442
		C75.934,47.297,75.704,47.624,75.399,47.886z M73.303,47.82c0.829,0,1.43-0.185,1.801-0.558c0.371-0.369,0.556-0.971,0.556-1.801
		V32.623h9.172c0.917,0,1.561,0.229,1.932,0.688c0.371,0.458,0.557,1.17,0.557,2.129v10.022c0,0.83,0.186,1.432,0.557,1.801
		c0.371,0.373,0.971,0.558,1.801,0.558h10.154c0.829,0,1.43-0.185,1.802-0.558c0.37-0.369,0.556-0.971,0.556-1.801V31.574
		c0-2.751-0.731-4.956-2.194-6.615c-1.463-1.66-3.373-2.621-5.732-2.883c1.354-0.567,2.303-1.495,2.85-2.784
		c0.546-1.287,0.819-2.85,0.819-4.684v-3.013c0-3.231-0.928-5.863-2.784-7.894c-1.856-2.03-5.23-3.046-10.121-3.046H63.214
		c-0.829,0-1.43,0.187-1.801,0.557c-0.372,0.372-0.557,0.973-0.557,1.802v42.448c0,0.83,0.185,1.432,0.557,1.801
		c0.371,0.373,0.972,0.558,1.801,0.558H73.303z M75.661,12.446h4.914c1.136,0,1.9,0.295,2.293,0.885
		c0.393,0.589,0.589,1.321,0.589,2.193v2.228c0,0.875-0.196,1.605-0.589,2.195c-0.393,0.589-1.157,0.884-2.293,0.884h-4.914V12.446z
		"/>
	<path fill="#212121" d="M125.567,56.6c-4.236,0-7.719-0.449-10.448-1.345c-2.73-0.896-4.859-2.086-6.387-3.569
		c-1.529-1.484-2.587-3.189-3.177-5.108c-0.59-1.923-0.884-3.909-0.884-5.962V10.154c0-0.567,0.075-1.048,0.229-1.441
		c0.153-0.393,0.382-0.721,0.688-0.982l8.45-7.141c0.219-0.174,0.514-0.316,0.884-0.426C115.293,0.055,115.698,0,116.134,0h10.287
		c1.046,0,1.81,0.241,2.292,0.721c0.479,0.481,0.72,1.244,0.72,2.293v29.871c0,0.393,0.066,0.753,0.197,1.08
		c0.13,0.327,0.415,0.581,0.852,0.755V10.154c0-0.567,0.064-1.048,0.196-1.441c0.131-0.393,0.327-0.698,0.59-0.917l0.064-0.065
		l8.517-7.141c0.219-0.174,0.502-0.316,0.852-0.426C141.049,0.055,141.464,0,141.944,0h9.959c1.046,0,1.81,0.241,2.292,0.721
		c0.48,0.481,0.72,1.244,0.72,2.293v32.426c0,2.009-0.283,3.865-0.852,5.567c-0.566,1.705-1.594,3.167-3.079,4.39l-8.515,7.075
		c-1.53,1.312-3.648,2.326-6.355,3.046C133.406,56.238,129.892,56.6,125.567,56.6z M154.261,35.439V3.014
		c0-0.829-0.187-1.43-0.558-1.802c-0.372-0.37-0.972-0.557-1.8-0.557h-9.959c-0.829,0-1.431,0.187-1.802,0.557
		c-0.371,0.372-0.556,0.973-0.556,1.802v29.871c0,0.875-0.327,1.604-0.983,2.194c-0.654,0.589-2.14,0.885-4.454,0.885
		c-2.271,0-3.733-0.296-4.39-0.885c-0.654-0.59-0.981-1.319-0.981-2.194V3.014c0-0.829-0.187-1.43-0.558-1.802
		c-0.371-0.37-0.971-0.557-1.799-0.557h-10.287c-0.83,0-1.43,0.187-1.802,0.557c-0.371,0.372-0.556,0.973-0.556,1.802v32.426
		c0,2.009,0.294,3.831,0.884,5.47c0.589,1.638,1.638,3.036,3.145,4.193c1.506,1.158,3.57,2.063,6.191,2.718
		c2.62,0.655,5.96,0.983,10.022,0.983c4.062,0,7.401-0.328,10.022-0.983c2.621-0.654,4.685-1.56,6.19-2.718
		c1.506-1.157,2.555-2.556,3.144-4.193C153.965,39.271,154.261,37.448,154.261,35.439z"/>
	<path fill="#212121" d="M159.631,55.616c-1.048,0-1.813-0.241-2.292-0.72c-0.482-0.482-0.722-1.246-0.722-2.294v-7.663
		c0-0.568,0.076-1.049,0.23-1.442c0.151-0.393,0.382-0.72,0.688-0.982l6.55-5.503c-2.315-0.698-4.138-1.888-5.47-3.569
		c-1.334-1.682-1.999-4.095-1.999-7.24v-6.877c0-1.965,0.328-3.712,0.983-5.241c0.655-1.528,1.595-2.817,2.817-3.865l8.515-7.141
		c1.18-0.959,2.644-1.713,4.391-2.26C175.068,0.273,177.057,0,179.285,0h18.342c1.047,0,1.81,0.241,2.292,0.721
		c0.48,0.481,0.722,1.244,0.722,2.293v7.795c0,0.568-0.078,1.048-0.23,1.441c-0.153,0.393-0.384,0.721-0.688,0.983l-5.896,4.913
		c2.753,0.612,4.97,1.758,6.649,3.439c1.682,1.682,2.523,4.292,2.523,7.827v6.879c0,1.965-0.328,3.712-0.983,5.24
		c-0.655,1.531-1.615,2.816-2.882,3.865l-8.449,7.075c-1.225,1.005-2.71,1.779-4.457,2.326c-1.746,0.545-3.71,0.818-5.895,0.818
		H159.631z M188.783,47.82c4.192,0,7.499-0.992,9.924-2.979c2.424-1.988,3.636-4.838,3.636-8.55v-6.879
		c0-3.667-0.94-6.288-2.816-7.86c-1.879-1.572-4.347-2.576-7.402-3.013l-9.761-1.31c-0.567-0.043-1.006-0.262-1.311-0.655
		c-0.306-0.394-0.459-0.873-0.459-1.442c0-0.566,0.153-1.036,0.459-1.408c0.305-0.37,0.743-0.556,1.311-0.556h15.264
		c0.828,0,1.429-0.186,1.801-0.557c0.37-0.371,0.557-0.971,0.557-1.801V3.014c0-0.829-0.187-1.43-0.557-1.802
		c-0.372-0.37-0.973-0.557-1.801-0.557h-18.342c-4.238,0-7.558,0.995-9.959,2.981c-2.401,1.988-3.603,4.837-3.603,8.549v6.878
		c0,3.668,0.929,6.289,2.784,7.861c1.854,1.572,4.312,2.576,7.37,3.013l9.825,1.376c0.568,0.044,0.993,0.241,1.278,0.589
		c0.283,0.351,0.426,0.896,0.426,1.638c0,0.524-0.143,0.974-0.426,1.345c-0.285,0.371-0.71,0.556-1.278,0.556h-17.621
		c-0.83,0-1.43,0.187-1.801,0.558c-0.373,0.371-0.558,0.971-0.558,1.802v7.663c0,0.83,0.185,1.432,0.558,1.801
		c0.371,0.373,0.971,0.558,1.801,0.558H188.783z"/>
	<path fill="#212121" d="M228.393,47.886l-8.515,7.075c-0.176,0.175-0.449,0.328-0.82,0.458c-0.371,0.132-0.773,0.197-1.212,0.197
		h-10.152c-1.049,0-1.813-0.241-2.294-0.72c-0.48-0.482-0.72-1.246-0.72-2.294V10.154c0-0.567,0.074-1.048,0.229-1.441
		c0.151-0.393,0.382-0.721,0.687-0.982l8.451-7.141c0.218-0.174,0.514-0.316,0.885-0.426C215.302,0.055,215.705,0,216.141,0h10.156
		c1.047,0,1.811,0.241,2.292,0.721c0.48,0.481,0.72,1.244,0.72,2.293v13.56h1.181v-6.42c0-0.567,0.075-1.048,0.229-1.441
		s0.382-0.721,0.688-0.982l8.449-7.141c0.22-0.174,0.514-0.316,0.885-0.426C241.111,0.055,241.516,0,241.952,0h10.154
		c1.049,0,1.812,0.241,2.292,0.721c0.48,0.481,0.722,1.244,0.722,2.293v42.448c0,0.569-0.077,1.048-0.229,1.442
		c-0.155,0.393-0.384,0.72-0.688,0.981l-8.518,7.075c-0.175,0.175-0.447,0.328-0.818,0.458c-0.369,0.132-0.775,0.197-1.212,0.197
		h-10.152c-1.049,0-1.813-0.241-2.294-0.72c-0.48-0.482-0.72-1.246-0.72-2.294V38.715h-1.181v6.747c0,0.569-0.075,1.048-0.229,1.442
		C228.927,47.297,228.698,47.624,228.393,47.886z M226.297,47.82c0.829,0,1.431-0.185,1.8-0.558c0.371-0.369,0.56-0.971,0.56-1.801
		V30.92h10.938v14.542c0,0.83,0.185,1.432,0.556,1.801c0.372,0.373,0.972,0.558,1.802,0.558h10.154c0.829,0,1.431-0.185,1.802-0.558
		c0.371-0.369,0.558-0.971,0.558-1.801V3.014c0-0.829-0.187-1.43-0.558-1.802c-0.371-0.37-0.973-0.557-1.802-0.557h-10.154
		c-0.83,0-1.43,0.187-1.802,0.557c-0.371,0.372-0.556,0.973-0.556,1.802v14.215h-10.938V3.014c0-0.829-0.188-1.43-0.56-1.802
		c-0.369-0.37-0.971-0.557-1.8-0.557h-10.156c-0.828,0-1.428,0.187-1.799,0.557c-0.371,0.372-0.557,0.973-0.557,1.802v42.448
		c0,0.83,0.186,1.432,0.557,1.801c0.371,0.373,0.971,0.558,1.799,0.558H226.297z"/>
</g>
</svg>
